# xmcd
#
# Track frame offsets:
#	150
#	19662
#	30735
#	48372
#	62927
#	76607
#	92167
#	108160
#	123117
#	136040
#	155167
#	166490
#	178652
#	196720
#	209042
#	219870
#	234977
#	247102
#	261460
#
# Disc length: 3852 seconds
#
# Revision: 0
# Processed by: cddbd v1.4PL0 Copyright (c) Steve Scherf et al.
# Submitted via: EasyCDDAExtractor 4.6.9.1
#
DISCID=020f0a13
DTITLE=Dave Harris - Slim's Blue Dream
DYEAR=1998
DGENRE=Blues
TTITLE0=Good Morning Blues
TTITLE1=Give Them Their Flowers
TTITLE2=Slim's Blue Dream
TTITLE3=Strung Out No. 2
TTITLE4=Baby, Why Don't You Come Home
TTITLE5=Sugar Babe
TTITLE6=Crowded at the Bottom
TTITLE7=Going to Chicago
TTITLE8=Sore Throat Blues
TTITLE9=Smiles Are Free
TTITLE10=Be Who You Are
TTITLE11=I'm On My Way
TTITLE12=On the Street
TTITLE13=Thouse Who Wait
TTITLE14=Vilola Blues
TTITLE15=No Matter What We Do
TTITLE16=Watch Your Back
TTITLE17=It'll All Come Back
TTITLE18=Payday Medley
EXTD=
EXTT0=Huddie Leadbitter
EXTT1=
EXTT2=
EXTT3=
EXTT4=Furry Lewis
EXTT5=
EXTT6=
EXTT7=
EXTT8=
EXTT9=
EXTT10=
EXTT11=
EXTT12=
EXTT13=
EXTT14=
EXTT15=
EXTT16=
EXTT17=
EXTT18=John Hurt/Woody Guthrie
PLAYORDER=
